#!OML:ASF H:\MichaelJackson\Top Level 1\Subject 1\Session 1\male.ASF
:FULLY-SPECIFIED
:DEGREES
249
root 1.55154 15.3583 -28.1881 9.10637 9.69143 0.279521
lowerback -1.05206 -4.54001 3.69955
upperback -2.72831 -6.13842 -3.78885
thorax -3.04579 -3.22868 -5.86228
lowerneck -9.17483 0.775209 2.47445
upperneck -1.08773 0.701926 3.74842
head 1.19681 0.423407 0.778807
rclavicle 2.70347e-014 -3.02153e-014
rhumerus 3.48388 -21.7568 -3.71541
rradius 57.8902
rwrist -25.7322
rhand -37.6134 -53.7352
rfingers 7.12502
rthumb -10.6664 -83.4445
lclavicle 2.70347e-014 -3.02153e-014
lhumerus -55.5604 -29.6684 111.798
lradius 48.2934
lwrist 22.2479
lhand 37.0554 35.6677
lfingers 7.12502
lthumb 59.9127 49.5394
rfemur -27.3382 -17.113 -1.79782
rtibia 46.7384
rfoot -18.4521 -5.4724
rtoes -39.8698
lfemur -2.50567 -5.08643 8.96624
ltibia 11.0483
lfoot -20.1701 -0.477796
ltoes -30.1902
250
root 1.51796 15.3625 -28.2091 8.98398 9.43004 -0.0142904
lowerback -0.802318 -4.59612 3.65375
upperback -2.58885 -6.19908 -3.4944
thorax -3.00853 -3.24722 -5.51107
lowerneck -9.25169 0.943721 2.16628
upperneck -1.22937 0.966182 3.42173
head 1.16228 0.546865 0.737822
rclavicle 2.87741e-014 3.18055e-014
rhumerus 2.118 -17.4022 -3.29292
rradius 63.2048
rwrist -24.5924
rhand -39.2579 -56.4856
rfingers 7.12502
rthumb -12.2523 -86.1067
lclavicle 2.87741e-014 3.18055e-014
lhumerus -55.4737 -29.8228 112.061
lradius 48.758
lwrist 21.229
lhand 36.5827 33.9867
lfingers 7.12502
lthumb 59.5071 48.2742
rfemur -27.5897 -17.4873 -1.3127
rtibia 46.8113
rfoot -18.6878 -4.7899
rtoes -39.744
lfemur -3.07278 -3.52173 8.92981
ltibia 12.8062
lfoot -19.8926 1.10671
ltoes -30.1116
251
root 1.48505 15.3659 -28.2338 8.8177 9.11011 -0.230243
lowerback -0.428912 -4.59149 3.53411
upperback -2.46019 -6.17856 -3.28066
thorax -3.04312 -3.22675 -5.19614
lowerneck -9.28381 1.0721 1.92016
upperneck -1.38216 1.17134 3.14025
head 1.11705 0.641568 0.697944
rclavicle 7.70291e-015 -3.4191e-014
rhumerus 0.846366 -12.8504 -2.84589
rradius 68.5105
rwrist -23.5883
rhand -40.5312 -58.8213
rfingers 7.12502
rthumb -13.4798 -88.3651
lclavicle 7.70291e-015 -3.4191e-014
lhumerus -55.5092 -30.12 112.305
lradius 49.4051
lwrist 20.229
lhand 35.9738 32.4098
lfingers 7.12502
lthumb 58.9822 47.2159
rfemur -27.8273 -17.8628 -0.91815
rtibia 46.8949
rfoot -18.9022 -4.07826
rtoes -39.6628
lfemur -3.54444 -2.07055 8.82679
ltibia 14.4641
lfoot -19.606 2.53514
ltoes -30.1084
252
root 1.45379 15.3687 -28.2618 8.63332 8.74842 -0.383833
lowerback 0.0433364 -4.53846 3.36045
upperback -2.3581 -6.09449 -3.13323
thorax -3.156 -3.17657 -4.91442
lowerneck -9.28565 1.17514 1.73195
upperneck -1.51493 1.33563 2.91131
head 1.07353 0.717374 0.663105
rclavicle 1.70955e-014 1.59028e-014
rhumerus -0.252543 -8.08907 -2.3524
rradius 73.6894
rwrist -22.6555
rhand -41.1482 -59.7771
rfingers 7.12502
rthumb -14.0744 -89.2805
lclavicle 1.70955e-014 1.59028e-014
lhumerus -55.683 -30.5124 112.542
lradius 50.2365
lwrist 19.3324
lhand 35.222 31.1473
lfingers 7.12502
lthumb 58.3304 46.5685
rfemur -28.0787 -18.245 -0.589462
rtibia 47.0018
rfoot -19.0927 -3.35168
rtoes -39.5996
lfemur -3.9807 -0.811726 8.69822
ltibia 16.0617
lfoot -19.3204 3.78199
ltoes -30.111
253
root 1.42484 15.3712 -28.292 8.44447 8.37236 -0.513761
lowerback 0.57114 -4.4481 3.1705
upperback -2.27858 -5.9624 -3.02841
thorax -3.32282 -3.10409 -4.66619
lowerneck -9.27582 1.26396 1.60067
upperneck -1.62051 1.47356 2.71953
head 1.03719 0.781296 0.629419
rclavicle 3.77194e-014 6.36111e-015
rhumerus -1.12172 -3.14883 -1.78792
rradius 78.6908
rwrist -21.6566
rhand -40.9434 -58.8772
rfingers 7.12502
rthumb -13.8771 -88.3943
lclavicle 3.77194e-014 6.36111e-015
lhumerus -55.9756 -30.9662 112.777
lradius 51.2349
lwrist 18.5801
lhand 34.3493 30.1353
lfingers 7.12502
lthumb 57.5689 46.2373
rfemur -28.3477 -18.6319 -0.281078
rtibia 47.1273
rfoot -19.2546 -2.6345
rtoes -39.5499
lfemur -4.42557 0.2455 8.60493
ltibia 17.6281
lfoot -19.0545 4.80399
ltoes -30.191
254
root 1.39895 15.3726 -28.3244 8.27889 7.98145 -0.664157
lowerback 1.11504 -4.32337 3.01229
upperback -2.22618 -5.78586 -2.94231
thorax -3.52944 -3.01159 -4.45721
lowerneck -9.26361 1.34855 1.51397
upperneck -1.70632 1.60012 2.55012
head 1.00714 0.840343 0.594928
rclavicle -5.01931e-015 1.03368e-014
rhumerus -1.70484 1.8507 -1.14225
rradius 83.4863
rwrist -20.5379
rhand -39.7054 -55.8996
rfingers 7.12502
rthumb -12.6838 -85.4944
lclavicle -5.01931e-015 1.03368e-014
lhumerus -56.3598 -31.4429 113.007
lradius 52.3651
lwrist 17.9691
lhand 33.4474 29.3589
lfingers 7.12502
lthumb 56.7768 46.1294
rfemur -28.6693 -19.0002 0.0599538
rtibia 47.2606
rfoot -19.3765 -1.94494
rtoes -39.5272
lfemur -4.92758 1.19092 8.60232
ltibia 19.1957
lfoot -18.8267 5.52728
ltoes -30.2955
255
root 1.37602 15.3733 -28.3578 8.13644 7.60674 -0.872047
lowerback 1.6382 -4.17602 2.917
upperback -2.18191 -5.57893 -2.85521
thorax -3.73796 -2.90559 -4.28803
lowerneck -9.27473 1.43457 1.46577
upperneck -1.78044 1.72342 2.38604
head 0.985254 0.898202 0.55587
rclavicle 1.33186e-014 -1.90833e-014
rhumerus -1.97019 6.73103 -0.413994
rradius 88.0657
rwrist -19.2845
rhand -37.1473 -51.0122
rfingers 7.12502
rthumb -10.2168 -80.7441
lclavicle 1.33186e-014 -1.90833e-014
lhumerus -56.7841 -31.9241 113.21
lradius 53.5956
lwrist 17.4336
lhand 32.6127 28.7023
lfingers 7.12502
lthumb 56.0393 46.0615
rfemur -29.0197 -19.3452 0.470997
rtibia 47.3913
rfoot -19.4677 -1.29255
rtoes -39.4972
lfemur -5.52264 2.11002 8.73266
ltibia 20.8107
lfoot -18.6742 5.93739
ltoes -30.4902
256
root 1.35619 15.3735 -28.3916 8.03723 7.25605 -1.15765
lowerback 2.09851 -4.00762 2.90839
upperback -2.13822 -5.34206 -2.76023
thorax -3.91794 -2.78651 -4.16849
lowerneck -9.30906 1.52042 1.44899
upperneck -1.87266 1.84293 2.22299
head 0.961996 0.954093 0.511877
rclavicle 4.77083e-015 -1.59028e-015
rhumerus -1.91864 11.3226 0.388597
rradius 92.4345
rwrist -17.9596
rhand -32.9303 -44.7363
rfingers 7.12502
rthumb -6.14696 -74.6271
lclavicle 4.77083e-015 -1.59028e-015
lhumerus -57.2226 -32.402 113.374
lradius 54.8901
lwrist 16.9452
lhand 31.8467 28.0717
lfingers 7.12502
lthumb 55.3591 45.9474
rfemur -29.4122 -19.6726 0.977951
rtibia 47.512
rfoot -19.5316 -0.682143
rtoes -39.4726
lfemur -6.24951 3.10393 9.00375
ltibia 22.5192
lfoot -18.5755 6.04073
ltoes -30.7098
257
root 1.33936 15.3717 -28.4257 7.99435 6.93621 -1.52722
lowerback 2.48118 -3.82506 2.98995
upperback -2.09536 -5.08319 -2.65297
thorax -4.06103 -2.65847 -4.09627
lowerneck -9.38124 1.60822 1.45217
upperneck -1.98373 1.96221 2.06472
head 0.939553 1.00996 0.46635
rclavicle 5.9039e-014 -1.51076e-014
rhumerus -1.54181 15.4954 1.2421
rradius 96.6048
rwrist -16.6873
rhand -26.7751 -37.8409
rfingers 7.12502
rthumb -0.202889 -67.8205
lclavicle 5.9039e-014 -1.51076e-014
lhumerus -57.6536 -32.8511 113.48
lradius 56.2258
lwrist 16.4749
lhand 31.141 27.4092
lfingers 7.12502
lthumb 54.7297 45.7416
rfemur -29.8577 -19.9848 1.58742
rtibia 47.6224
rfoot -19.5704 -0.115217
rtoes -39.4452
lfemur -7.12682 4.3003 9.40267
ltibia 24.3436
lfoot -18.4984 5.87101
ltoes -30.9151
258
root 1.3253 15.3683 -28.4598 8.0192 6.66096 -1.96352
lowerback 2.7755 -3.63404 3.13923
upperback -2.05117 -4.81038 -2.53557
thorax -4.15685 -2.52479 -4.0607
lowerneck -9.48426 1.69356 1.46505
upperneck -2.13825 2.0771 1.91351
head 0.908764 1.06346 0.421318
rclavicle 5.07895e-014 1.98785e-014
rhumerus -0.856023 19.1685 2.12886
rradius 100.602
rwrist -15.6485
rhand -18.4684 -30.9966
rfingers 7.12502
rthumb 7.81829 -60.8321
lclavicle 5.07895e-014 1.98785e-014
lhumerus -58.0552 -33.2611 113.516
lradius 57.5693
lwrist 16.0033
lhand 30.4334 26.5712
lfingers 7.12502
lthumb 54.0962 45.344
rfemur -30.3592 -20.3015 2.28213
rtibia 47.725
rfoot -19.5912 0.412587
rtoes -39.4255
lfemur -8.17552 5.75341 9.88089
ltibia 26.3012
lfoot -18.43 5.49815
ltoes -31.0552
259
root 1.31388 15.3631 -28.4939 8.11002 6.44747 -2.42918
lowerback 2.99714 -3.44371 3.31592
upperback -2.01092 -4.53764 -2.41477
thorax -4.21753 -2.39166 -4.04314
lowerneck -9.61067 1.7756 1.46243
upperneck -2.33782 2.18908 1.78546
head 0.867413 1.11573 0.385921
rclavicle 3.48867e-014 -4.77083e-015
rhumerus 0.113544 22.3207 3.02758
rradius 104.469
rwrist -15.0075
rhand -7.81597 -24.5727
rfingers 7.12502
rthumb 18.0859 -53.7519
lclavicle 3.48867e-014 -4.77083e-015
lhumerus -58.4121 -33.6177 113.481
lradius 58.892
lwrist 15.5486
lhand 29.7018 25.6398
lfingers 7.12502
lthumb 53.4387 44.8504
rfemur -30.9026 -20.6488 3.01741
rtibia 47.8251
rfoot -19.6047 0.900136
rtoes -39.4288
lfemur -9.39802 7.45886 10.3614
ltibia 28.3956
lfoot -18.3213 5.04536
ltoes -31.1223
260
root 1.30491 15.356 -28.528 8.25821 6.31018 -2.88898
lowerback 3.16528 -3.25891 3.47635
upperback -1.97513 -4.27344 -2.2926
thorax -4.25165 -2.2621 -4.01865
lowerneck -9.76096 1.84876 1.4322
upperneck -2.58123 2.29207 1.66833
head 0.815894 1.16368 0.358162
rclavicle -8.94531e-015 3.02153e-014
rhumerus 1.33728 24.9533 3.93259
rradius 108.248
rwrist -14.9176
rhand 5.27367 -18.7275
rfingers 7.12502
rthumb 30.631 -46.1986
lclavicle -8.94531e-015 3.02153e-014
lhumerus -58.7185 -33.9139 113.385
lradius 60.1802
lwrist 15.1363
lhand 28.9199 24.6413
lfingers 7.12502
lthumb 52.7333 44.3011
rfemur -31.4711 -21.0462 3.74948
rtibia 47.9262
rfoot -19.6138 1.35634
rtoes -39.4435
lfemur -10.7813 9.36261 10.7766
ltibia 30.6049
lfoot -18.1738 4.59004
ltoes -30.9641
261
root 1.29855 15.3471 -28.562 8.45046 6.26421 -3.32237
lowerback 3.30142 -3.08274 3.59553
upperback -1.94756 -4.02291 -2.16518
thorax -4.27388 -2.13813 -3.96681
lowerneck -9.92546 1.90989 1.35605
upperneck -2.86022 2.38408 1.55198
head 0.755035 1.20646 0.337806
rclavicle 4.40308e-014 2.70347e-014
rhumerus 2.77332 27.0746 4.8373
rradius 111.979
rwrist -15.5445
rhand 20.6211 -13.5513
rfingers 7.12502
rthumb 45.1132 -37.0062
lclavicle 4.40308e-014 2.70347e-014
lhumerus -58.9711 -34.1443 113.247
lradius 61.4139
lwrist 14.7983
lhand 27.9952 23.5075
lfingers 7.12502
lthumb 51.8958 43.6748
rfemur -32.0445 -21.5097 4.45113
rtibia 48.029
rfoot -19.6174 1.77011
rtoes -39.4901
lfemur -12.3075 11.352 11.0816
ltibia 32.893
lfoot -17.9818 4.21562
ltoes -30.6109
